#!OML:ASF X:\für Bonn\!DataBase\2005_08_12_Daniel\c3d\Daniel.ASF
:FULLY-SPECIFIED
:DEGREES
232
root 0.658835 15.8558 0.304047 -18.4041 -86.8105 3.35645
lowerback 20.4789 0.37636 2.50749
upperback 0.481458 0.583858 -3.43974
thorax -10.9318 -0.0171322 -5.42819
lowerneck -0.13206 -3.17954 2.95149
upperneck 0.400449 -4.26499 0.993265
head 0.10224 -2.13255 -0.180234
rclavicle -1.5704e-014 3.57812e-014
rhumerus 16.9673 30.1047 -60.6278
rradius 86.8487
rwrist 28.0476
rhand -40.2067 374.09
rfingers 7.12502
rthumb -13.1671 344.526
lclavicle -1.5704e-014 3.57812e-014
lhumerus -188.95 209.747 -94.3033
lradius 98.0893
lwrist 16.9053
lhand 16.2513 4.50282
lfingers 7.12502
lthumb 41.0282 29.4103
rfemur -6.53938 4.06685 11.9569
rtibia 53.8433
rfoot 328.95 -12.1583
rtoes -17.1726
lfemur -8.97146 -11.7944 -16.2406
ltibia 58.4928
lfoot -33.4023 3.4281
ltoes -7.72733
233
root 0.634709 16.0372 0.318684 -20.5571 -87.0956 6.01402
lowerback 19.9861 0.426152 2.38057
upperback 0.365552 0.621878 -3.4322
thorax -10.7834 0.0132692 -5.34376
lowerneck -0.968883 -3.03868 2.91522
upperneck 0.284361 -4.10486 0.96061
head 0.204172 -2.05104 -0.198249
rclavicle 1.15295e-014 1.35174e-014
rhumerus 10.5903 33.2939 -64.4784
rradius 87.4111
rwrist 27.8689
rhand -40.7618 375.585
rfingers 7.12502
rthumb -13.7021 346.056
lclavicle 1.15295e-014 1.35174e-014
lhumerus -193.918 208.532 -92.5639
lradius 96.9101
lwrist 16.1621
lhand 13.8619 6.81613
lfingers 7.12502
lthumb 38.7793 32.399
rfemur -5.49841 4.70885 12.0203
rtibia 51.0762
rfoot 330.015 -12.3302
rtoes -16.696
lfemur -7.9858 -11.7429 -16.4666
ltibia 55.9705
lfoot -32.2398 4.14316
ltoes -7.89078
234
root 0.609559 16.2047 0.331891 -22.6172 -87.3559 8.73274
lowerback 19.3075 0.468503 2.26785
upperback 0.20785 0.658546 -3.39891
thorax -10.5767 0.0453615 -5.23312
lowerneck -1.8799 -2.89012 2.61963
upperneck 0.23782 -3.93413 1.09065
head 0.348245 -1.9629 -0.126729
rclavicle -2.40529e-014 8.74653e-015
rhumerus 4.02291 35.7455 -69.1552
rradius 87.0933
rwrist 27.6011
rhand -40.5117 376.548
rfingers 7.12502
rthumb -13.461 347.003
lclavicle -2.40529e-014 8.74653e-015
lhumerus -198.74 207.169 -90.9095
lradius 95.7659
lwrist 15.7513
lhand 10.1247 9.10164
lfingers 7.12502
lthumb 35.2446 35.6002
rfemur -4.71253 5.26436 12.0262
rtibia 48.4549
rfoot 331.171 -12.4669
rtoes -16.393
lfemur -7.26479 -11.7279 -16.6289
ltibia 53.5995
lfoot -31.1399 4.78002
ltoes -7.90951
235
root 0.586274 16.3589 0.343588 -23.7136 -87.5631 10.7079
lowerback 18.4239 0.493945 2.19842
upperback -0.0171398 0.683273 -3.374
thorax -10.3284 0.070427 -5.14886
lowerneck -2.97145 -2.75977 2.38792
upperneck 0.311699 -3.7925 1.18253
head 0.558157 -1.88708 -0.0803859
rclavicle -1.41137e-014 9.54166e-015
rhumerus -2.82577 37.2031 -74.4632
rradius 86.2337
rwrist 27.4138
rhand -39.5589 376.71
rfingers 7.12502
rthumb -12.5426 347.106
lclavicle -1.41137e-014 9.54166e-015
lhumerus -203.159 205.8 -89.4044
lradius 94.6251
lwrist 15.751
lhand 5.22891 11.4636
lfingers 7.12502
lthumb 30.5883 38.9428
rfemur -4.31884 5.72252 12.0077
rtibia 46.0689
rfoot 332.443 -12.6134
rtoes -16.0045
lfemur -6.95258 -11.7971 -16.6898
ltibia 51.441
lfoot -30.0268 5.42818
ltoes -7.81267
236
root 0.563721 16.5089 0.353161 -24.6965 -87.7181 12.7536
lowerback 17.3363 0.51386 2.08559
upperback -0.275879 0.694732 -3.32688
thorax -10.001 0.0941627 -5.00578
lowerneck -4.1044 -2.62683 2.11821
upperneck 0.390677 -3.64275 1.28805
head 0.780347 -1.80687 -0.0222653
rclavicle -1.39149e-015 3.10104e-014
rhumerus -9.44179 37.6399 -79.8052
rradius 84.8788
rwrist 27.2529
rhand -38.1102 376.131
rfingers 7.12502
rthumb -11.1455 346.447
lclavicle -1.39149e-015 3.10104e-014
lhumerus -207.414 204.211 -87.9649
lradius 93.6453
lwrist 16.093
lhand -0.379349 13.7244
lfingers 7.12502
lthumb 25.227 42.0768
rfemur -4.26347 6.10202 11.9243
rtibia 43.9265
rfoot 333.713 -12.7375
rtoes -15.7541
lfemur -6.97211 -11.9539 -16.7146
ltibia 49.4771
lfoot -28.9198 6.07166
ltoes -7.74468
237
root 0.54122 16.6619 0.361567 -24.7036 -87.8391 13.9507
lowerback 16.1486 0.515499 1.98396
upperback -0.586011 0.686489 -3.26647
thorax -9.67128 0.10735 -4.84917
lowerneck -5.25173 -2.49502 1.87764
upperneck 0.492746 -3.49105 1.36624
head 1.01413 -1.72557 0.0248736
rclavicle -5.26779e-015 -4.77083e-015
rhumerus -15.6987 37.0539 -84.9087
rradius 83.2673
rwrist 27.3236
rhand -36.2137 374.996
rfingers 7.12502
rthumb -9.31599 345.222
lclavicle -5.26779e-015 -4.77083e-015
lhumerus -211.558 202.34 -86.5773
lradius 92.8287
lwrist 16.5927
lhand -6.30275 15.6863
lfingers 7.12502
lthumb 19.5413 44.7243
rfemur -4.48313 6.45025 11.8474
rtibia 41.9988
rfoot 335.055 -12.9495
rtoes -15.3912
lfemur -7.24241 -12.2176 -16.6866
ltibia 47.6732
lfoot -27.7561 6.80759
ltoes -7.70877
